<?xml version="1.0" encoding="utf-8"?>
<!-- Generator: Adobe Illustrator 27.2.0, SVG Export Plug-In . SVG Version: 6.00 Build 0)  -->
<svg version="1.1" id="Layer_1" xmlns="http://www.w3.org/2000/svg" xmlns:xlink="http://www.w3.org/1999/xlink" x="0px" y="0px"
	 viewBox="0 0 622.06 116.21" style="enable-background:new 0 0 622.06 116.21;" xml:space="preserve">
<g>
	<g>
		<path d="M6355.42,4597.04c0-1.74,1.02-2.87,3.9-3.49c5.44-1.43,6.16-3.28,6.05-7.28v-9.13c0-2.36-0.1-3.38-1.95-6.57
			c-6.87-10.98-12.21-20.72-17.13-30.88c-1.74-4-3.69-5.44-6.15-6.57c-2.26-0.92-3.59-1.95-3.59-3.8c0-1.95,1.23-3.28,3.69-3.28
			h20.82c2.87,0,4.31,1.23,4.31,3.39c0,2.05-1.33,2.98-4.1,3.8c-1.85,0.72-3.18,1.44-3.18,2.87c0,0.92,0.62,1.95,1.03,2.87
			c3.18,7.08,7.18,15.39,11.59,21.85c1.13,1.74,1.74,1.74,2.77,0.1c4-5.85,8.31-14.05,12.1-22.16c0.51-1.13,1.03-1.95,1.03-2.97
			c0-1.23-0.92-2.05-3.28-2.57c-3.08-0.72-4.72-1.64-4.72-3.8c0-2.05,1.44-3.39,3.8-3.39h18.05c2.46,0,3.9,1.13,3.9,3.18
			c0,1.64-0.92,2.77-3.18,3.8c-3.08,1.43-4.21,2.77-5.95,6.26c-5.13,10.77-11.8,22.98-16.41,30.47c-1.75,2.77-1.85,3.8-1.85,6.26
			v10.26c-0.1,4,0.82,5.85,6.26,7.39c2.87,0.72,3.9,1.85,3.8,3.59c0,2.46-2.36,3.28-4.72,3.18l-5.44-0.1h-16.82
			C6357.67,4600.32,6355.42,4599.5,6355.42,4597.04z"/>
		<path d="M6390.8,4573.65c-0.31-16.72,13.23-29.13,27.9-29.13c13.75,0,24.72,9.95,24.72,21.23c0,3.9-2.15,6.77-5.74,7.8
			c-3.59,0.92-7.08,1.33-10.56,2.05c-6.67,1.03-12.72,3.59-17.54,7.18c-0.92,0.82-1.54,1.33-1.54,2.05c0,0.82,0.51,1.54,1.33,2.26
			c3.18,3.49,7.8,5.23,12.21,5.23c6.36,0,10.87-2.36,16.72-8.62c1.54-1.64,2.87-1.74,4.31-0.51c2.05,1.74,2.26,3.28,0.62,5.74
			c-5.13,8.31-14.98,12.62-23.9,12.62C6404.75,4601.55,6390.9,4590.58,6390.8,4573.65z M6403.93,4577.65c0.51,0,1.03-0.31,1.85-1.02
			c4.92-3.9,12.31-7.28,20.72-9.03c3.39-0.72,4.82-1.95,4.82-4c0-4.72-6.16-10.98-14.05-10.98c-8.41,0-15.49,7.49-15.49,17.95
			C6401.77,4575.19,6402.49,4577.65,6403.93,4577.65z"/>
		<path d="M6445.05,4597.35c0-1.54,0.82-2.56,3.08-3.38c2.87-1.13,3.59-2.77,3.49-6.77v-47.8c0.1-3.9-0.62-5.64-3.9-6.87
			c-2.26-0.82-2.87-1.85-2.87-3.39c0-2.16,1.64-2.98,3.49-2.87h10.77c2.15,0,3.59,1.03,3.59,4.1v56.62c-0.1,4,0.62,5.74,3.69,6.87
			c2.46,0.92,3.28,1.95,3.28,3.39c0,2.26-1.74,3.08-3.79,3.08h-17.23C6446.8,4600.32,6445.05,4599.5,6445.05,4597.35z"/>
		<path d="M6472.64,4597.35c0-1.54,0.82-2.56,3.08-3.38c2.87-1.13,3.59-2.77,3.49-6.77v-47.8c0.1-3.9-0.62-5.64-3.9-6.87
			c-2.26-0.82-2.87-1.85-2.87-3.39c0-2.16,1.64-2.98,3.49-2.87h10.77c2.15,0,3.59,1.03,3.59,4.1v56.62c-0.1,4,0.62,5.74,3.69,6.87
			c2.46,0.92,3.28,1.95,3.28,3.39c0,2.26-1.74,3.08-3.79,3.08h-17.23C6474.38,4600.32,6472.64,4599.5,6472.64,4597.35z"/>
		<path d="M6496.64,4573.55c0-16.41,12.31-28.93,28.62-29.13c15.59-0.2,27.9,12.41,27.9,28.93c0,16.31-12.1,28.52-27.59,28.52
			C6509.57,4601.86,6496.64,4589.45,6496.64,4573.55z M6527.21,4593.45c8.21,0,14.46-7.39,14.46-17.03
			c0-13.13-8.51-23.59-18.77-23.59c-8.51,0-14.88,7.08-14.88,16.52C6508.03,4582.98,6516.85,4593.45,6527.21,4593.45z"/>
		<path d="M6572.75,4597.65c-5.64-11.9-10.67-26.47-14.57-39.39c-1.03-3.49-2.15-4.72-4.21-5.75c-1.95-1.13-2.87-2.15-2.87-3.49
			c0-2.05,1.23-3.28,3.9-3.28h18.16c2.56,0,3.69,1.03,3.69,3.08c0,1.54-1.02,2.87-3.28,3.69c-4.1,1.44-4.51,2.26-3.59,6.16
			c1.74,7.59,5.64,18.36,9.64,26.77c0.62,1.33,1.44,1.33,1.95,0.2c2.77-6.36,7.9-20.11,9.64-28.41c0.51-2.26,0.2-3.49-2.77-4.92
			c-2.36-0.92-3.39-1.85-3.39-3.69c0-1.95,1.23-2.87,3.69-2.87h17.75c2.26,0,3.59,1.13,3.59,3.18c0,1.54-0.72,2.46-3.08,3.38
			c-3.18,1.54-3.9,2.67-2.98,5.74c2.87,9.74,7.49,20.72,10.67,27.59c0.51,1.23,1.44,1.33,1.95,0c2.77-6.46,7.39-19.9,8.62-27.08
			c0.62-3.39,0.31-4.92-3.28-6.26c-2.46-0.92-3.49-1.85-3.49-3.49c0-1.85,1.23-3.08,3.49-3.08h15.9c2.15,0,3.39,1.23,3.39,3.18
			c0,1.54-0.92,2.67-2.87,3.69c-2.36,1.23-3.39,2.67-4.21,6.05c-3.08,11.59-8,27.39-13.13,38.77c-1.33,2.98-1.74,3.39-6.05,3.39
			c-5.03,0-5.44-0.51-6.87-3.39c-3.18-6.26-8.41-18.16-11.18-26.05c-0.41-1.23-1.43-1.44-1.85,0c-1.74,5.44-6.67,19.39-9.54,26.16
			c-1.23,2.87-1.85,3.39-6.77,3.39C6574.8,4600.94,6574.18,4600.53,6572.75,4597.65z"/>
		<path d="M6664.53,4597.04c0-1.74,0.82-2.77,3.18-3.49c4.31-1.43,4.82-3.18,4.82-7.18V4540c0-4-0.61-5.74-4.92-7.28
			c-2.26-0.62-3.08-1.74-3.08-3.39c0-2.46,1.74-3.28,3.69-3.28h36.42c12.51,0,20.93,7.28,20.93,17.85c0,5.23-2.87,9.85-9.64,14.05
			c-1.33,0.72-1.44,1.85-0.21,2.46c9.13,4.82,13.75,11.39,13.75,19.49c0,13.23-10.05,20.41-24.31,20.41h-36.93
			C6666.38,4600.32,6664.53,4599.5,6664.53,4597.04z M6686.28,4559.8c3.8-0.92,14.26-3.49,17.13-4.31
			c6.36-1.85,9.85-5.44,9.85-10.57c0-6.36-5.03-10.67-12.52-10.67h-13.95c-1.85,0-2.67,0.92-2.67,2.87v20.72
			C6684.13,4559.7,6684.74,4560.11,6686.28,4559.8z M6698.08,4592.32c12.51,0,19.08-4.72,19.08-12.51c0-5.33-2.87-9.64-7.39-12.41
			c-2.87-1.85-6.05-2.87-8.62-2.87c-2.87,0-8.1,1.44-14.98,3.59c-1.54,0.51-2.05,1.33-2.05,2.67v13.85
			C6684.13,4591.19,6686.9,4592.32,6698.08,4592.32z"/>
		<path d="M6734.38,4545.75h10.87c2.15,0,3.49,1.44,3.49,4.41v36.83c-0.1,4,0.61,5.74,3.8,6.87c2.46,0.92,3.28,1.95,3.28,3.39
			c0,2.26-1.85,3.08-3.9,3.08h-17.13c-1.85,0-3.59-0.82-3.59-2.98c0-1.54,0.82-2.56,3.08-3.38c2.87-1.13,3.49-2.77,3.49-6.77v-28.21
			c0-4-0.62-5.75-3.9-6.98c-2.26-0.82-2.98-1.85-2.87-3.39C6730.99,4546.47,6732.64,4545.75,6734.38,4545.75z M6732.64,4536
			c0-4.72,3.49-8.62,8.21-8.62s8.31,3.9,8.31,8.62c0,2.05-1.23,3.28-3.28,3.28h-9.95C6733.87,4539.29,6732.64,4537.95,6732.64,4536z
			"/>
		<path d="M6758.79,4597.35c0-1.54,0.82-2.56,3.08-3.38c2.87-1.13,3.59-2.77,3.49-6.77v-47.7c0.1-3.9-0.62-5.64-3.9-6.87
			c-2.26-0.82-2.87-1.85-2.87-3.38c0-2.15,1.64-2.98,3.49-2.87h11.39c2.05,0,3.08,1.03,3.08,2.97l-0.1,30.77
			c0,1.33,0.92,1.23,1.85,0.31c3.28-3.49,6.05-5.95,9.74-8.51c5.64-4,12.82-7.08,16.93-7.08c2.15,0,3.28,1.85,4.41,7.18
			c0.51,2.26-0.1,3.08-3.08,3.49c-6.56,1.02-14.15,2.97-20.62,7.08c-1.03,0.62-1.13,1.54,0,1.85c6.05,1.64,9.85,5.64,14.05,13.44
			l5.13,9.44c1.64,2.97,3.28,4.41,6.26,6.05c2.26,1.13,3.39,2.26,3.39,4.21c0,1.64-1.13,2.77-3.08,2.77h-10.77
			c-3.08,0-4-2.05-5.23-5.23l-4.41-11.18c-2.87-7.28-7.28-12.31-13.13-12.31c-0.92,0-1.44,0.51-1.44,1.64v13.44
			c-0.1,4.1,0.72,5.95,4.31,7.08c2.77,0.82,3.8,1.95,3.8,3.49c0,2.26-2.15,3.08-4.51,3.08h-17.64
			C6760.53,4600.32,6758.79,4599.5,6758.79,4597.35z"/>
		<path d="M6811.81,4573.65c-0.31-16.72,13.23-29.13,27.9-29.13c13.75,0,24.72,9.95,24.72,21.23c0,3.9-2.15,6.77-5.74,7.8
			c-3.59,0.92-7.08,1.33-10.56,2.05c-6.67,1.03-12.72,3.59-17.54,7.18c-0.92,0.82-1.54,1.33-1.54,2.05c0,0.82,0.51,1.54,1.33,2.26
			c3.18,3.49,7.79,5.23,12.21,5.23c6.36,0,10.88-2.36,16.72-8.62c1.54-1.64,2.87-1.74,4.31-0.51c2.05,1.74,2.26,3.28,0.62,5.74
			c-5.13,8.31-14.98,12.62-23.9,12.62C6825.77,4601.55,6811.92,4590.58,6811.81,4573.65z M6824.94,4577.65
			c0.51,0,1.03-0.31,1.85-1.02c4.93-3.9,12.31-7.28,20.72-9.03c3.39-0.72,4.82-1.95,4.82-4c0-4.72-6.15-10.98-14.05-10.98
			c-8.41,0-15.49,7.49-15.49,17.95C6822.79,4575.19,6823.51,4577.65,6824.94,4577.65z"/>
	</g>
</g>
<g>
	<g>
		<g>
			<path d="M38.14,87.44c0-1.43,0.84-2.35,3.19-2.85c4.45-1.17,5.03-2.68,4.95-5.95v-7.46c0-1.93-0.08-2.77-1.59-5.37
				c-5.62-8.97-9.98-16.94-14.01-25.24c-1.43-3.27-3.02-4.44-5.03-5.37c-1.84-0.75-2.93-1.59-2.93-3.1c0-1.59,1.01-2.68,3.02-2.68
				h17.02c2.35,0,3.52,1.01,3.52,2.77c0,1.68-1.09,2.43-3.35,3.1c-1.51,0.59-2.6,1.17-2.6,2.35c0,0.75,0.5,1.59,0.84,2.35
				c2.6,5.79,5.87,12.58,9.48,17.86c0.92,1.43,1.43,1.43,2.26,0.08c3.27-4.78,6.79-11.49,9.9-18.11c0.42-0.92,0.84-1.59,0.84-2.43
				c0-1.01-0.75-1.68-2.68-2.1c-2.52-0.59-3.86-1.34-3.86-3.1c0-1.68,1.17-2.77,3.1-2.77h14.76c2.01,0,3.19,0.92,3.19,2.6
				c0,1.34-0.75,2.26-2.6,3.1c-2.52,1.17-3.44,2.26-4.86,5.11c-4.19,8.81-9.64,18.78-13.42,24.91c-1.43,2.26-1.51,3.1-1.51,5.12
				v8.39c-0.08,3.27,0.67,4.78,5.11,6.04c2.35,0.59,3.19,1.51,3.1,2.94c0,2.01-1.93,2.68-3.86,2.6l-4.44-0.08H41.92
				C39.99,90.12,38.14,89.45,38.14,87.44z"/>
			<path d="M67.07,68.32C66.82,54.65,77.88,44.5,89.88,44.5c11.24,0,20.21,8.13,20.21,17.36c0,3.19-1.76,5.53-4.7,6.37
				c-2.93,0.75-5.79,1.09-8.64,1.68c-5.45,0.84-10.4,2.93-14.34,5.87c-0.75,0.67-1.26,1.09-1.26,1.68c0,0.67,0.42,1.26,1.09,1.84
				c2.6,2.85,6.37,4.28,9.98,4.28c5.2,0,8.89-1.93,13.67-7.04c1.26-1.34,2.35-1.43,3.52-0.42c1.68,1.43,1.84,2.68,0.5,4.7
				c-4.19,6.79-12.24,10.31-19.54,10.31C78.47,91.13,67.15,82.16,67.07,68.32z M77.8,71.59c0.42,0,0.84-0.25,1.51-0.84
				c4.03-3.19,10.06-5.95,16.94-7.38c2.77-0.59,3.94-1.59,3.94-3.27c0-3.86-5.03-8.97-11.49-8.97c-6.88,0-12.66,6.12-12.66,14.67
				C76.04,69.58,76.63,71.59,77.8,71.59z"/>
			<path d="M111.42,87.69c0-1.26,0.67-2.1,2.52-2.77c2.35-0.92,2.94-2.27,2.85-5.54V40.31c0.08-3.19-0.5-4.61-3.19-5.62
				c-1.84-0.67-2.35-1.51-2.35-2.77c0-1.76,1.34-2.43,2.85-2.35h8.81c1.76,0,2.93,0.84,2.93,3.35v46.29
				c-0.08,3.27,0.5,4.7,3.02,5.62c2.01,0.75,2.68,1.59,2.68,2.77c0,1.84-1.43,2.52-3.1,2.52h-14.09
				C112.85,90.12,111.42,89.45,111.42,87.69z"/>
			<path d="M133.97,87.69c0-1.26,0.67-2.1,2.52-2.77c2.35-0.92,2.94-2.27,2.85-5.54V40.31c0.08-3.19-0.5-4.61-3.19-5.62
				c-1.84-0.67-2.35-1.51-2.35-2.77c0-1.76,1.34-2.43,2.85-2.35h8.81c1.76,0,2.93,0.84,2.93,3.35v46.29
				c-0.08,3.27,0.5,4.7,3.02,5.62c2.01,0.75,2.68,1.59,2.68,2.77c0,1.84-1.43,2.52-3.1,2.52h-14.09
				C135.4,90.12,133.97,89.45,133.97,87.69z"/>
			<path d="M153.59,68.23c0-13.42,10.06-23.65,23.4-23.82c12.75-0.17,22.81,10.15,22.81,23.65c0,13.33-9.9,23.31-22.56,23.31
				C164.16,91.38,153.59,81.23,153.59,68.23z M178.58,84.5c6.71,0,11.82-6.04,11.82-13.92c0-10.73-6.96-19.29-15.35-19.29
				c-6.96,0-12.16,5.79-12.16,13.5C162.9,75.95,170.11,84.5,178.58,84.5z"/>
			<path d="M215.81,87.94c-4.61-9.73-8.72-21.64-11.91-32.2c-0.84-2.85-1.76-3.86-3.44-4.7c-1.59-0.92-2.35-1.76-2.35-2.85
				c0-1.68,1.01-2.68,3.19-2.68h14.84c2.1,0,3.02,0.84,3.02,2.52c0,1.26-0.84,2.35-2.68,3.02c-3.35,1.17-3.69,1.84-2.93,5.03
				c1.43,6.21,4.61,15.01,7.88,21.89c0.5,1.09,1.17,1.09,1.59,0.17c2.26-5.2,6.46-16.44,7.88-23.23c0.42-1.84,0.17-2.85-2.26-4.03
				c-1.93-0.75-2.77-1.51-2.77-3.02c0-1.59,1.01-2.35,3.02-2.35h14.51c1.84,0,2.93,0.92,2.93,2.6c0,1.26-0.59,2.01-2.52,2.77
				c-2.6,1.26-3.19,2.18-2.43,4.7c2.35,7.97,6.12,16.94,8.72,22.56c0.42,1.01,1.17,1.09,1.59,0c2.27-5.28,6.04-16.27,7.04-22.14
				c0.5-2.77,0.25-4.02-2.68-5.12c-2.01-0.75-2.85-1.51-2.85-2.85c0-1.51,1.01-2.52,2.85-2.52h13c1.76,0,2.77,1.01,2.77,2.6
				c0,1.26-0.75,2.18-2.35,3.02c-1.93,1.01-2.77,2.18-3.44,4.95c-2.52,9.48-6.54,22.39-10.73,31.7c-1.09,2.43-1.43,2.77-4.95,2.77
				c-4.11,0-4.44-0.42-5.62-2.77c-2.6-5.12-6.88-14.84-9.14-21.3c-0.34-1.01-1.17-1.17-1.51,0c-1.43,4.44-5.45,15.85-7.8,21.38
				c-1.01,2.35-1.51,2.77-5.54,2.77C217.49,90.63,216.98,90.29,215.81,87.94z"/>
			<path d="M290.85,87.44c0-1.43,0.67-2.26,2.6-2.85c3.52-1.17,3.94-2.6,3.94-5.87v-37.9c0-3.27-0.5-4.7-4.02-5.95
				c-1.84-0.5-2.52-1.43-2.52-2.77c0-2.01,1.43-2.68,3.02-2.68h29.77c10.23,0,17.11,5.95,17.11,14.59c0,4.28-2.35,8.05-7.88,11.49
				c-1.09,0.59-1.17,1.51-0.17,2.01c7.46,3.94,11.24,9.31,11.24,15.93c0,10.82-8.22,16.69-19.87,16.69h-30.19
				C292.36,90.12,290.85,89.45,290.85,87.44z M308.62,57c3.1-0.75,11.66-2.85,14.01-3.52c5.2-1.51,8.05-4.45,8.05-8.64
				c0-5.2-4.11-8.72-10.23-8.72h-11.4c-1.51,0-2.18,0.75-2.18,2.35V55.4C306.86,56.91,307.37,57.25,308.62,57z M318.27,83.58
				c10.23,0,15.6-3.86,15.6-10.23c0-4.36-2.35-7.88-6.04-10.15c-2.35-1.51-4.95-2.35-7.04-2.35c-2.35,0-6.62,1.17-12.24,2.94
				c-1.26,0.42-1.68,1.09-1.68,2.18v11.32C306.86,82.66,309.13,83.58,318.27,83.58z"/>
			<path d="M347.94,45.51h8.89c1.76,0,2.85,1.17,2.85,3.61v30.1c-0.08,3.27,0.5,4.7,3.1,5.62c2.01,0.75,2.68,1.59,2.68,2.77
				c0,1.84-1.51,2.52-3.19,2.52h-14c-1.51,0-2.94-0.67-2.94-2.43c0-1.26,0.67-2.1,2.52-2.77c2.35-0.92,2.85-2.27,2.85-5.54V56.33
				c0-3.27-0.5-4.7-3.19-5.7c-1.85-0.67-2.43-1.51-2.35-2.77C345.18,46.1,346.52,45.51,347.94,45.51z M346.52,37.54
				c0-3.86,2.85-7.04,6.71-7.04s6.79,3.19,6.79,7.04c0,1.68-1.01,2.68-2.68,2.68h-8.13C347.53,40.23,346.52,39.14,346.52,37.54z"/>
			<path d="M367.9,87.69c0-1.26,0.67-2.1,2.52-2.77c2.35-0.92,2.93-2.27,2.85-5.54V40.39c0.08-3.19-0.5-4.61-3.19-5.62
				c-1.84-0.67-2.35-1.51-2.35-2.77c0-1.76,1.34-2.43,2.85-2.35h9.31c1.68,0,2.52,0.84,2.52,2.43l-0.08,25.16
				c0,1.09,0.75,1.01,1.51,0.25c2.68-2.85,4.95-4.86,7.97-6.96c4.61-3.27,10.48-5.79,13.84-5.79c1.76,0,2.68,1.51,3.61,5.87
				c0.42,1.84-0.08,2.52-2.52,2.85c-5.37,0.84-11.57,2.43-16.86,5.79c-0.84,0.5-0.92,1.26,0,1.51c4.95,1.34,8.05,4.61,11.49,10.99
				l4.19,7.72c1.34,2.43,2.68,3.61,5.12,4.95c1.84,0.92,2.77,1.84,2.77,3.44c0,1.34-0.92,2.26-2.52,2.26h-8.81
				c-2.52,0-3.27-1.68-4.28-4.28l-3.61-9.14c-2.35-5.95-5.95-10.06-10.73-10.06c-0.75,0-1.17,0.42-1.17,1.34v10.99
				c-0.08,3.35,0.59,4.86,3.52,5.79c2.26,0.67,3.1,1.59,3.1,2.85c0,1.84-1.76,2.52-3.69,2.52h-14.42
				C369.32,90.12,367.9,89.45,367.9,87.69z"/>
			<path d="M411.25,68.32C411,54.65,422.06,44.5,434.06,44.5c11.24,0,20.21,8.13,20.21,17.36c0,3.19-1.76,5.53-4.7,6.37
				c-2.93,0.75-5.79,1.09-8.64,1.68c-5.45,0.84-10.4,2.93-14.34,5.87c-0.75,0.67-1.26,1.09-1.26,1.68c0,0.67,0.42,1.26,1.09,1.84
				c2.6,2.85,6.37,4.28,9.98,4.28c5.2,0,8.89-1.93,13.67-7.04c1.26-1.34,2.35-1.43,3.52-0.42c1.68,1.43,1.85,2.68,0.5,4.7
				c-4.19,6.79-12.25,10.31-19.54,10.31C422.65,91.13,411.33,82.16,411.25,68.32z M421.98,71.59c0.42,0,0.84-0.25,1.51-0.84
				c4.03-3.19,10.06-5.95,16.94-7.38c2.77-0.59,3.94-1.59,3.94-3.27c0-3.86-5.03-8.97-11.49-8.97c-6.88,0-12.66,6.12-12.66,14.67
				C420.22,69.58,420.81,71.59,421.98,71.59z"/>
		</g>
	</g>
	<path d="M577.65,47.87c-2.52,0-4.93,0.44-7.18,1.23l-7.08-15.59c-1.11-2.44-3.56-4.01-6.23-4.01h-7.41c-0.55,0-0.93,0.57-0.7,1.08
		l1.03,2.33c0.12,0.28,0.4,0.46,0.7,0.46h6.38c1.17,0,2.23,0.68,2.72,1.75l4.66,10.26c-6.23,2.92-11.57,7.39-15.54,13.04l-1.58,2.25
		c-1.69-1.12-3.72-1.78-5.89-1.78c-0.83,0-1.63,0.1-2.41,0.28l-6.87-15.49c-1.09-2.49-3.55-4.09-6.27-4.09h-5.22
		c-4.24-6.21-11.35-10.07-19.02-10.07h-19.41c-6.55,0-9.71-2.21-11.73-4.13c-0.67-0.64-1.71-0.71-2.46-0.16
		c-0.75,0.55-1.01,1.55-0.61,2.39l2.78,5.85c2.19,4.79,6.66,8.1,11.77,8.9c2.42,4.54,6.69,7.76,11.62,8.9
		c-6.06,3.85-10.09,10.62-10.09,18.32c0,11.96,9.73,21.7,21.7,21.7c11.31,0,20.62-8.7,21.6-19.76H531
		c0.91,4.98,5.27,8.77,10.51,8.77c0.9,0,1.76-0.12,2.59-0.33c1.13,2.39,3.54,3.93,6.19,3.93h4.96c0.55,0,0.93-0.57,0.7-1.08
		l-1.03-2.33c-0.12-0.28-0.4-0.46-0.7-0.46h-3.93c-1.14,0-2.18-0.66-2.67-1.67c2.77-1.94,4.59-5.14,4.59-8.77
		c0-2.31-0.74-4.45-1.99-6.2l1.93-2.75c3.57-5.08,8.38-9.11,13.98-11.74l0.83,1.83c-6.56,3.73-11,10.79-11,18.87
		c0,11.96,9.73,21.7,21.69,21.7c11.96,0,21.7-9.73,21.7-21.7S589.61,47.87,577.65,47.87z M497.63,47.84
		c-4.29,0-8.28-2.01-10.86-5.31h16.58c1.07,0,1.93-0.86,1.93-1.93s-0.86-1.93-1.93-1.93h-18.9c-4.52,0-8.66-2.63-10.6-6.73
		c2.46,0.95,5.25,1.41,8.46,1.41h19.41c7.48,0,14.32,4.39,17.43,11.19l10.53,23.08h-2.8c-0.98-11.06-10.29-19.76-21.6-19.76v-0.03
		H497.63z M523.01,67.63h-11.49l9.48-6.49C522.06,63.11,522.76,65.3,523.01,67.63z M505.28,87.4c-9.83,0-17.83-8-17.83-17.83
		s8-17.83,17.83-17.83c5.41,0,10.25,2.42,13.53,6.23l-14.62,10.01c-0.7,0.48-1,1.36-0.75,2.16c0.25,0.81,1,1.36,1.84,1.36h17.73
		C522.04,80.42,514.46,87.4,505.28,87.4z M532.33,64.12l-9.44-20.69h3.08c1.18,0,2.26,0.7,2.74,1.79l6.86,15.46
		C534.24,61.57,533.14,62.75,532.33,64.12z M541.51,76.4c-3.77,0-6.84-3.07-6.84-6.84s3.07-6.84,6.84-6.84
		c3.77,0,6.83,3.07,6.83,6.84S545.28,76.4,541.51,76.4z M577.65,87.4c-9.83,0-17.83-8-17.83-17.83c0-6.52,3.51-12.22,8.75-15.34
		l7.33,16.13c0.32,0.71,1.02,1.13,1.76,1.13c0.33,0,0.66-0.08,0.97-0.26c0.88-0.51,1.15-1.66,0.73-2.59l-7.28-16.02
		c1.76-0.58,3.63-0.9,5.57-0.9c9.83,0,17.83,8,17.83,17.83S587.48,87.4,577.65,87.4z"/>
</g>
</svg>
